<?xml version="1.0" encoding="utf-8"?>
<svg width="800px" height="800px" viewBox="0 0 24 24" fill="none" xmlns="http://www.w3.org/2000/svg">
<path d="M12 2.75C10.2051 2.75 8.75 4.20507 8.75 6V12C8.75 13.7949 10.2051 15.25 12 15.25C13.7949 15.25 15.25 13.7949 15.25 12V6C15.25 4.20507 13.7949 2.75 12 2.75Z" fill="#000000"/>
<path d="M6.75 11.75C7.16421 11.75 7.5 12.0858 7.5 12.5C7.5 14.9853 9.51472 17 12 17C14.4853 17 16.5 14.9853 16.5 12.5C16.5 12.0858 16.8358 11.75 17.25 11.75C17.6642 11.75 18 12.0858 18 12.5C18 15.4382 15.8399 17.8719 13.0312 18.3006V20.25H15.25C15.6642 20.25 16 20.5858 16 21C16 21.4142 15.6642 21.75 15.25 21.75H8.75C8.33579 21.75 8 21.4142 8 21C8 20.5858 8.33579 20.25 8.75 20.25H10.9688V18.3006C8.16013 17.8719 6 15.4382 6 12.5C6 12.0858 6.33579 11.75 6.75 11.75Z" fill="#000000"/>
</svg>
