<svg width="24" height="24" viewBox="0 0 24 24" fill="none" xmlns="http://www.w3.org/2000/svg">
  <path d="M9 11C10.6569 11 12 9.65685 12 8C12 6.34315 10.6569 5 9 5C7.34315 5 6 6.34315 6 8C6 9.65685 7.34315 11 9 11Z" stroke="currentColor" stroke-width="1.8" stroke-linecap="round" stroke-linejoin="round"/>
  <path d="M15.5 10C16.8807 10 18 8.88071 18 7.5C18 6.11929 16.8807 5 15.5 5C14.1193 5 13 6.11929 13 7.5C13 8.88071 14.1193 10 15.5 10Z" stroke="currentColor" stroke-width="1.8" stroke-linecap="round" stroke-linejoin="round"/>
  <path d="M4.5 18C4.5 15.7909 6.29086 14 8.5 14H9.5C11.7091 14 13.5 15.7909 13.5 18" stroke="currentColor" stroke-width="1.8" stroke-linecap="round" stroke-linejoin="round"/>
  <path d="M13.5 18C13.5 16.3431 14.8431 15 16.5 15H17C18.6569 15 20 16.3431 20 18" stroke="currentColor" stroke-width="1.8" stroke-linecap="round" stroke-linejoin="round"/>
</svg>
